<?xml version="1.0" encoding="UTF-8" standalone="no"?>
<!-- Created with Inkscape (http://www.inkscape.org/) -->

<svg
   xmlns:dc="http://purl.org/dc/elements/1.1/"
   xmlns:cc="http://creativecommons.org/ns#"
   xmlns:rdf="http://www.w3.org/1999/02/22-rdf-syntax-ns#"
   xmlns:svg="http://www.w3.org/2000/svg"
   xmlns="http://www.w3.org/2000/svg"
   xmlns:xlink="http://www.w3.org/1999/xlink"
   xmlns:sodipodi="http://sodipodi.sourceforge.net/DTD/sodipodi-0.dtd"
   xmlns:inkscape="http://www.inkscape.org/namespaces/inkscape"
   width="400"
   height="400"
   id="svg2"
   version="1.1"
   inkscape:version="0.48.2 r9819"
   sodipodi:docname="iconfav.svg"
   inkscape:export-filename="/home/moteado/Desarrollo/hacklab/proyecto/juan_carlos_radio/repositorio/.local/share/icecast2/web/favicon.png"
   inkscape:export-xdpi="14.4"
   inkscape:export-ydpi="14.4">
  <defs
     id="defs4">
    <linearGradient
       id="linearGradient5586">
      <stop
         style="stop-color:#666666;stop-opacity:1;"
         offset="0"
         id="stop5588" />
      <stop
         style="stop-color:#494949;stop-opacity:1;"
         offset="1"
         id="stop5590" />
    </linearGradient>
    <linearGradient
       id="linearGradient4091">
      <stop
         style="stop-color:#800080;stop-opacity:1;"
         offset="0"
         id="stop4093" />
      <stop
         style="stop-color:#3a003a;stop-opacity:1;"
         offset="1"
         id="stop4095" />
    </linearGradient>
    <linearGradient
       inkscape:collect="always"
       xlink:href="#linearGradient4091"
       id="linearGradient4097"
       x1="178.76215"
       y1="307.69339"
       x2="170.94826"
       y2="223.54811"
       gradientUnits="userSpaceOnUse"
       gradientTransform="translate(-161.36213,64.321239)" />
    <radialGradient
       inkscape:collect="always"
       xlink:href="#linearGradient5586"
       id="radialGradient5594"
       cx="42.25"
       cy="294.58966"
       fx="42.25"
       fy="294.58966"
       r="94.027229"
       gradientTransform="matrix(1.4197579,0,0,1.0492314,-179.0969,49.818189)"
       gradientUnits="userSpaceOnUse" />
    <linearGradient
       inkscape:collect="always"
       xlink:href="#linearGradient4091"
       id="linearGradient3783"
       x1="172.25189"
       y1="121.86985"
       x2="234.0567"
       y2="116.42687"
       gradientUnits="userSpaceOnUse"
       gradientTransform="translate(-161.36213,64.321239)" />
    <linearGradient
       id="linearGradient4091-5">
      <stop
         style="stop-color:#4d0080;stop-opacity:1;"
         offset="0"
         id="stop4093-7" />
      <stop
         style="stop-color:#1e003a;stop-opacity:1;"
         offset="1"
         id="stop4095-3" />
    </linearGradient>
    <linearGradient
       id="linearGradient3800">
      <stop
         style="stop-color:#800080;stop-opacity:1;"
         offset="0"
         id="stop3802" />
      <stop
         style="stop-color:#3a003a;stop-opacity:1;"
         offset="1"
         id="stop3804" />
    </linearGradient>
    <linearGradient
       id="linearGradient5586-7">
      <stop
         style="stop-color:#666666;stop-opacity:1;"
         offset="0"
         id="stop5588-2" />
      <stop
         style="stop-color:#494949;stop-opacity:1;"
         offset="1"
         id="stop5590-7" />
    </linearGradient>
    <linearGradient
       inkscape:collect="always"
       xlink:href="#linearGradient4091-5"
       id="linearGradient3969"
       x1="69.87278"
       y1="75.893387"
       x2="269.17764"
       y2="288.16962"
       gradientUnits="userSpaceOnUse"
       gradientTransform="translate(3.9188355e-7,652.36218)" />
    <linearGradient
       id="linearGradient4091-6">
      <stop
         style="stop-color:#800080;stop-opacity:1;"
         offset="0"
         id="stop4093-5" />
      <stop
         style="stop-color:#3a003a;stop-opacity:1;"
         offset="1"
         id="stop4095-8" />
    </linearGradient>
    <linearGradient
       id="linearGradient5586-4">
      <stop
         style="stop-color:#666666;stop-opacity:1;"
         offset="0"
         id="stop5588-9" />
      <stop
         style="stop-color:#494949;stop-opacity:1;"
         offset="1"
         id="stop5590-5" />
    </linearGradient>
    <linearGradient
       id="linearGradient3043">
      <stop
         style="stop-color:#800080;stop-opacity:1;"
         offset="0"
         id="stop3045" />
      <stop
         style="stop-color:#3a003a;stop-opacity:1;"
         offset="1"
         id="stop3047" />
    </linearGradient>
  </defs>
  <sodipodi:namedview
     id="base"
     pagecolor="#ffffff"
     bordercolor="#666666"
     borderopacity="1.0"
     inkscape:pageopacity="0.0"
     inkscape:pageshadow="2"
     inkscape:zoom="0.32468699"
     inkscape:cx="12.25831"
     inkscape:cy="211.68224"
     inkscape:document-units="px"
     inkscape:current-layer="layer1"
     showgrid="false"
     inkscape:window-width="1024"
     inkscape:window-height="552"
     inkscape:window-x="-1"
     inkscape:window-y="0"
     inkscape:window-maximized="1" />
  <metadata
     id="metadata7">
    <rdf:RDF>
      <cc:Work
         rdf:about="">
        <dc:format>image/svg+xml</dc:format>
        <dc:type
           rdf:resource="http://purl.org/dc/dcmitype/StillImage" />
        <dc:title></dc:title>
      </cc:Work>
    </rdf:RDF>
  </metadata>
  <g
     inkscape:label="Capa 1"
     inkscape:groupmode="layer"
     id="layer1"
     transform="translate(0,-652.36218)">
    <g
       id="g3031"
       transform="matrix(1.3584459,0,0,1.3584459,-78.952118,-301.66348)">
      <g
         inkscape:export-ydpi="7.5965867"
         inkscape:export-xdpi="7.5965867"
         inkscape:export-filename="/home/moteado/Desarrollo/hacklab/proyecto/juan_carlos_radio/repositorio/.local/share/icecast2/web/favicon.png"
         style="fill:#000000"
         inkscape:transform-center-y="33.563774"
         inkscape:transform-center-x="31.907873"
         transform="translate(161.36213,588.04094)"
         id="g4076">
        <path
           style="fill:#000000;fill-opacity:1;stroke:#000000;stroke-width:4.85128164;stroke-linejoin:round;stroke-miterlimit:4;stroke-opacity:1;stroke-dasharray:none"
           d="m 43.96875,203.1875 c 54.267101,0 98.28125,54.54701 98.28125,121.84375 0,15.42327 -2.34701,30.1686 -6.5625,43.75 -7.25011,-12.64014 -19.50645,-23.44006 -35.00844,-31.13218 C 84.808229,329.77394 44.75,377.31128 44.75,377.31128 c 0,0 -33.137561,-49.03911 -47.130926,-43.56079 -20.440554,8.00235 -36.469244,21.04546 -44.806574,36.78076 -4.56597,-14.05811 -7.09375,-29.41512 -7.09375,-45.5 0,-67.29674 43.982899,-121.84375 98.25,-121.84375 z"
           id="path3458-9-1"
           inkscape:connector-curvature="0"
           sodipodi:nodetypes="sscscscss" />
        <path
           inkscape:connector-curvature="0"
           id="path3458-9-8"
           d="m 41.90625,197.65625 c -7.197023,0.21937 -14.121989,1.74679 -20.625,4.375 -33.650326,17.68692 -70.628943,56.12517 -71.34375,88.09375 0,8.98287 6.956695,16.28125 15.53125,16.28125 3.711586,0 7.110137,-1.38006 9.78125,-3.65625 0.521274,2.55842 1.165705,5.06997 1.875,7.53125 -3.293327,9.80829 -5.125,20.52255 -5.125,31.75 0,18.47375 4.918057,35.56828 13.25,49.5 l 34.1875,0 c 1.717259,-12.73749 10.290207,-22.70766 21,-24.3125 1.096772,0.0609 2.203211,0.0937 3.3125,0.0937 0.982308,0 1.964988,-0.0147 2.9375,-0.0625 0.04083,0.007 0.08423,-0.007 0.125,0 10.556288,1.7499 18.933512,11.66729 20.625,24.28125 l 32.34375,0 c 8.3308,-13.93172 13.25,-31.02625 13.25,-49.5 0,-9.7305 -1.3701,-19.07659 -3.875,-27.78125 0.64396,-1.917 1.22152,-3.86009 1.75,-5.84375 2.36552,1.52731 5.14237,2.4375 8.125,2.4375 8.57456,0 15.53125,-7.29838 15.53125,-16.28125 -1.77802,-31.36637 -29.58437,-72.32039 -57.65625,-86.9375 -9.884259,-6.35256 -21.162669,-9.96875 -33.15625,-9.96875 -0.60857,0 -1.238873,-0.0184 -1.84375,0 z"
           style="fill:#000000;fill-opacity:1;stroke:#000000;stroke-width:3.42946315;stroke-linejoin:round;stroke-miterlimit:4;stroke-opacity:1;stroke-dasharray:none" />
        <path
           inkscape:connector-curvature="0"
           style="fill:#000000;stroke:#000000;stroke-width:3.42946315;stroke-linejoin:round;stroke-miterlimit:4;stroke-opacity:1;stroke-dasharray:none"
           d="m 108,312.125 c -0.0356,0.38293 -0.0561,0.66723 -0.0937,1.0625 0,0 -11.475752,25.858 -62.71875,26.53125 -47.165181,0.61968 -62.99966,-22.81424 -65.25,-26.59375 l -1.09375,0 c 10.50685,30.97633 35.78496,52.8125 65.3125,52.8125 29.52841,0 54.808164,-21.83427 65.3125,-52.8125 -0.12099,-0.32492 -0.23679,-0.65918 -0.34375,-1 l -1.125,0 z"
           id="path3458-9-3" />
        <path
           style="fill:#000000;fill-opacity:1;stroke:#000000;stroke-width:4;stroke-miterlimit:4;stroke-opacity:1;stroke-dasharray:none"
           d="m -37.785008,254.9213 c -6.091716,10.78865 -6.436656,18.67454 -10.630316,27.62062 -3.701978,7.99888 -0.547326,17.34275 7.01917,20.84462 7.566497,3.50187 16.702939,-0.15353 20.404918,-8.1524 4.213725,-10.35497 12.5265668,-13.27787 17.6590531,-24.36764 z"
           id="path3858"
           inkscape:connector-curvature="0"
           sodipodi:nodetypes="ccsccc"
           inkscape:transform-center-y="8.6265678" />
        <path
           style="fill:#000000;fill-opacity:1;stroke:#000000;stroke-width:4;stroke-miterlimit:4;stroke-opacity:1;stroke-dasharray:none"
           d="m 124.14379,259.70026 c 6.09172,10.78865 6.43666,18.67454 10.63032,27.62062 3.70198,7.99888 0.54732,17.34275 -7.01917,20.84462 -7.5665,3.50187 -16.70294,-0.15353 -20.40492,-8.1524 -4.21373,-10.35497 -12.526567,-13.27787 -17.659053,-24.36764 z"
           id="path3858-0"
           inkscape:connector-curvature="0"
           sodipodi:nodetypes="ccsccc"
           inkscape:transform-center-y="8.6265678" />
        <path
           style="fill:#000000;stroke:#000000;stroke-width:1px;stroke-linecap:butt;stroke-linejoin:miter;stroke-opacity:1"
           d="m 108.89124,369.94183 -46.516645,4.93358 7.400375,20.79153 25.725115,1.4096"
           id="path4014-7"
           inkscape:connector-curvature="0"
           sodipodi:nodetypes="cccc" />
        <path
           style="fill:#000000;fill-opacity:1;stroke:#000000;stroke-width:4;stroke-linejoin:round;stroke-miterlimit:4;stroke-opacity:1;stroke-dasharray:none"
           d="m 82.107262,380.97865 c -12.14902,0 -22,7.72136 -22,17.25 0,0.28751 0.01352,0.59093 0.03125,0.875 l 43.937498,0 c 0.0177,-0.28407 0.0312,-0.58749 0.0312,-0.875 0,-9.52864 -9.850978,-17.25 -21.999998,-17.25 z"
           id="path3881"
           inkscape:connector-curvature="0" />
        <path
           style="fill:#000000;stroke:#000000;stroke-width:1px;stroke-linecap:butt;stroke-linejoin:miter;stroke-opacity:1"
           d="m -23.258323,371.17523 46.516646,4.93358 -7.400375,20.79153 -25.7251155,1.4096"
           id="path4014"
           inkscape:connector-curvature="0"
           sodipodi:nodetypes="cccc" />
        <path
           style="fill:#000000;fill-opacity:1;stroke:#000000;stroke-width:4;stroke-linejoin:round;stroke-miterlimit:4;stroke-opacity:1;stroke-dasharray:none"
           d="m 5.214564,380.81787 c -12.1490198,0 -22,7.72136 -22,17.25 0,0.28751 0.01352,0.59093 0.03125,0.875 l 43.937502,0 c 0.0177,-0.28407 0.0312,-0.58749 0.0312,-0.875 0,-9.52864 -9.85098,-17.25 -22.000002,-17.25 z"
           id="path3881-4"
           inkscape:connector-curvature="0" />
        <g
           style="fill:#000000"
           transform="translate(0,-12)"
           id="g3985">
          <path
             transform="translate(170.01731,91.498569)"
             d="m -93.938534,188.00569 c 0,11.11732 -14.474406,20.12969 -32.329496,20.12969 -17.85509,0 -32.32949,-9.01237 -32.32949,-20.12969 0,-11.11732 14.4744,-20.12968 32.32949,-20.12968 17.85509,0 32.329496,9.01236 32.329496,20.12968 z"
             sodipodi:ry="20.129684"
             sodipodi:rx="32.329494"
             sodipodi:cy="188.00569"
             sodipodi:cx="-126.26803"
             id="path3904"
             style="fill:#000000;fill-opacity:1;stroke:#000000;stroke-width:4;stroke-linejoin:round;stroke-miterlimit:4;stroke-opacity:1;stroke-dasharray:none"
             sodipodi:type="arc" />
          <path
             sodipodi:nodetypes="csscscscccscscssccc"
             inkscape:connector-curvature="0"
             id="path3904-4"
             d="m 39.483612,263.30231 c 0,0 0.658204,2.61577 0.658204,4.07581 0,5.36931 -3.223493,9.72116 -7.214929,9.72116 -3.940297,0 -7.158469,-4.2444 -7.240244,-9.51864 -5.006191,2.97013 -8.126289,7.15156 -8.126289,11.79704 0,4.92973 3.510378,9.36381 9.062964,12.35399 -0.024,-0.27373 -0.05063,-0.55458 -0.05063,-0.83542 0,-4.62901 3.337346,-8.37944 7.44277,-8.37944 9.271558,0.99421 9.746483,13.1894 9.746483,13.1894 0,0 3.562981,-12.9386 10.885682,-13.1894 4.105424,0 7.442769,3.75043 7.442769,8.37944 0,0.0424 5.59e-4,0.0843 0,0.12658 4.840845,-2.95901 7.847818,-7.08765 7.847818,-11.64515 0,-4.33727 -2.729001,-8.26819 -7.164298,-11.18947 -0.296583,4.98659 -3.280504,8.91107 -6.936458,8.91107 -3.853603,0 -6.98709,-4.35185 -6.98709,-9.72116 0,-1.39279 0.607573,-3.8986 0.607573,-3.8986 l -4.987161,4.73913 z"
             style="fill:#000000;fill-opacity:1;stroke:none" />
        </g>
      </g>
      <g
         inkscape:export-ydpi="7.5965867"
         inkscape:export-xdpi="7.5965867"
         inkscape:export-filename="/home/moteado/Desarrollo/hacklab/proyecto/juan_carlos_radio/repositorio/.local/share/icecast2/web/favicon.png"
         style="fill:#000000"
         inkscape:transform-center-y="-85.709104"
         inkscape:transform-center-x="27.907872"
         transform="translate(159.08293,588.04094)"
         id="g4069">
        <path
           style="fill:#000000;stroke:#000000;stroke-width:4;stroke-linejoin:round;stroke-miterlimit:4;stroke-opacity:1;stroke-dasharray:none"
           d="m 9.9808413,187.72609 c 0,28.11462 23.8279317,46.2972 40.4547557,46.89891 16.626824,0.60171 40.489812,-18.78429 40.489812,-46.89891 -29.951568,-56.11409 -44.606129,-67.18825 -80.9445677,0 z"
           id="path3458"
           inkscape:connector-curvature="0"
           sodipodi:nodetypes="czcc" />
        <path
           style="fill:#000000;fill-opacity:1;stroke:#000000;stroke-width:4;stroke-linejoin:round;stroke-miterlimit:4;stroke-opacity:1;stroke-dasharray:none"
           d="m 14.570494,123.85256 -0.875,41.5 c -2.62465,6.74601 -4.09375,14.35841 -4.09375,22.375 0,2.69078 0.21568,9.30661 0.625,11.875 l 28.125,0 12.34375,10.09375 8.90625,-10.09375 30.3125,0 c 0.40663,-2.57705 0.625,-9.19536 0.625,-11.875 0,-7.64549 -1.34917,-14.89937 -3.75,-21.40625 l -0.0625,-42.46875 -15.75,20.28125 c -6.10317,-4.64135 -13.2538,-7.3125 -20.90625,-7.3125 -6.80124,0 -13.21733,2.11595 -18.84375,5.84375 z"
           id="path3458-96"
           inkscape:connector-curvature="0"
           sodipodi:nodetypes="ccscccccscccscc" />
        <path
           style="fill:#000000;fill-opacity:1;stroke:#000000;stroke-width:2.43173289;stroke-miterlimit:4;stroke-opacity:1;stroke-dasharray:none"
           d="m 31.65593,183.86565 c -3.653304,0 -6.761895,2.4253 -8.076642,5.84799 l 16.171115,0 c -1.314748,-3.42269 -4.441169,-5.84799 -8.094473,-5.84799 z"
           id="path3989"
           inkscape:connector-curvature="0" />
        <path
           style="fill:#000000;fill-opacity:1;stroke:#000000;stroke-width:2.43173289;stroke-miterlimit:4;stroke-opacity:1;stroke-dasharray:none"
           d="m 69.821937,183.86565 c -3.653305,0 -6.761896,2.42529 -8.076643,5.84798 l 16.171114,0 c -1.314747,-3.42269 -4.441167,-5.84798 -8.094471,-5.84798 z"
           id="path3989-8"
           inkscape:connector-curvature="0" />
        <path
           sodipodi:type="arc"
           style="fill:#000000;fill-opacity:1;stroke:#000000;stroke-width:3;stroke-linejoin:round;stroke-miterlimit:4;stroke-opacity:1;stroke-dasharray:none"
           id="path4067"
           sodipodi:cx="44.354683"
           sodipodi:cy="221.33485"
           sodipodi:rx="1.9934689"
           sodipodi:ry="2.7410197"
           d="m 46.348152,221.33485 c 0,1.51383 -0.892507,2.74102 -1.993469,2.74102 -1.100963,0 -1.993469,-1.22719 -1.993469,-2.74102 0,-1.51382 0.892506,-2.74102 1.993469,-2.74102 1.100962,0 1.993469,1.2272 1.993469,2.74102 z"
           transform="translate(6,4)" />
      </g>
    </g>
  </g>
</svg>
